<?xml version="1.0" standalone="no"?>
<!DOCTYPE svg PUBLIC "-//W3C//DTD SVG 20010904//EN"
 "http://www.w3.org/TR/2001/REC-SVG-20010904/DTD/svg10.dtd">
<svg version="1.0" xmlns="http://www.w3.org/2000/svg"
 width="1104.000000pt" height="1104.000000pt" viewBox="0 0 1104.000000 1104.000000"
 preserveAspectRatio="xMidYMid meet">
<metadata>
Created by potrace 1.14, written by Peter Selinger 2001-2017
</metadata>
<g transform="translate(0.000000,1104.000000) scale(0.100000,-0.100000)"
fill="#000000" stroke="none">
<path d="M8255 10880 c-3 -5 -1 -10 4 -10 6 0 11 5 11 10 0 6 -2 10 -4 10 -3
0 -8 -4 -11 -10z"/>
<path d="M8254 10817 c-1 -23 -4 -73 -8 -112 -3 -38 -8 -92 -11 -120 -2 -27
-7 -63 -9 -80 -3 -16 -8 -47 -12 -69 -3 -21 -8 -48 -10 -60 -2 -11 -7 -37 -10
-56 -3 -19 -12 -62 -21 -95 -8 -33 -17 -67 -18 -75 -13 -54 -48 -166 -55 -175
-4 -5 -8 -12 -8 -15 2 -15 -47 -150 -54 -150 -4 0 -8 -4 -8 -9 0 -5 -5 -22
-12 -38 -6 -15 -12 -30 -13 -33 0 -3 -7 -16 -15 -30 -8 -14 -29 -55 -46 -91
-18 -36 -40 -71 -48 -78 -9 -8 -16 -18 -16 -23 0 -14 -102 -158 -112 -158 -4
0 -8 -5 -8 -12 0 -7 -9 -21 -19 -33 -117 -124 -211 -213 -281 -266 -47 -35
-87 -66 -90 -69 -15 -16 -192 -107 -252 -130 -29 -11 -62 -25 -73 -29 -11 -5
-31 -12 -45 -16 -14 -3 -41 -11 -60 -16 -40 -10 -99 -22 -118 -22 -21 -1 4
-20 30 -24 36 -5 63 -10 63 -12 0 -2 11 -4 25 -7 14 -2 48 -12 75 -21 28 -10
52 -18 55 -18 3 -1 18 -7 33 -13 16 -7 30 -12 32 -12 12 0 180 -84 183 -91 2
-5 9 -9 16 -9 18 0 181 -113 251 -173 75 -66 224 -223 225 -238 0 -4 13 -22
30 -40 16 -19 30 -38 30 -43 0 -6 9 -19 19 -30 10 -12 31 -43 45 -71 15 -27
31 -57 37 -65 17 -27 99 -209 99 -220 0 -5 4 -18 9 -28 17 -30 51 -132 45
-132 -4 0 -2 -6 3 -12 9 -12 19 -42 28 -88 2 -8 8 -33 14 -55 19 -75 48 -230
57 -305 3 -25 7 -58 9 -75 7 -39 18 -190 19 -237 1 -57 12 -35 15 29 5 113 17
234 31 308 5 28 12 68 15 90 6 51 56 248 91 357 27 84 37 108 95 233 18 39 33
72 34 75 2 13 89 155 97 158 4 2 8 10 8 17 0 7 3 15 8 17 4 2 19 21 34 43 64
94 221 255 323 332 17 13 46 35 66 50 75 57 230 141 334 183 33 13 65 27 71
32 6 4 14 5 17 1 4 -3 12 -1 19 5 7 5 33 15 58 22 25 6 52 14 60 17 19 8 27
10 119 28 48 9 43 20 -14 29 -22 3 -47 7 -55 9 -66 14 -87 21 -97 29 -7 6 -13
7 -13 3 0 -4 -7 -2 -15 5 -8 7 -15 10 -15 7 0 -9 -112 38 -215 91 -82 41 -209
121 -213 133 -2 5 -8 9 -14 9 -5 0 -15 6 -22 13 -7 6 -28 23 -46 37 -104 78
-271 264 -374 418 -58 87 -174 309 -196 377 -7 22 -20 50 -28 63 -8 12 -12 22
-8 22 3 0 -3 24 -14 53 -10 28 -20 61 -22 72 -2 11 -5 22 -9 25 -5 5 -25 81
-33 125 -2 11 -6 31 -10 45 -3 14 -8 36 -10 50 -3 14 -7 35 -10 46 -5 23 -10
58 -22 139 -3 28 -8 59 -10 70 -5 26 -17 193 -15 222 0 12 -3 24 -7 27 -4 2
-7 -15 -8 -37z"/>
<path d="M5155 10240 c-3 -5 -1 -10 4 -10 6 0 11 5 11 10 0 6 -2 10 -4 10 -3
0 -8 -4 -11 -10z"/>
<path d="M5154 10209 c-3 -6 -2 -15 3 -20 5 -5 9 -1 9 11 0 23 -2 24 -12 9z"/>
<path d="M5152 10088 c-8 -232 -37 -605 -58 -723 -3 -16 -7 -52 -9 -80 -2 -27
-4 -50 -5 -50 -3 0 -8 -30 -15 -90 -3 -33 -8 -62 -10 -65 -2 -3 -5 -27 -8 -55
-3 -27 -11 -71 -16 -98 -6 -26 -14 -64 -17 -85 -3 -20 -9 -53 -14 -72 -5 -19
-11 -52 -14 -74 -4 -21 -8 -42 -11 -46 -3 -5 -7 -21 -9 -37 -7 -45 -35 -156
-46 -181 -8 -18 -7 -22 2 -16 10 6 10 5 2 -7 -7 -8 -15 -30 -19 -49 -4 -19
-10 -39 -13 -45 -3 -5 -7 -16 -8 -25 -2 -19 -33 -129 -44 -155 -4 -11 -22 -65
-39 -120 -18 -55 -38 -116 -46 -135 -7 -19 -32 -84 -55 -145 -40 -103 -58
-147 -97 -235 -21 -46 -171 -351 -183 -370 -5 -8 -44 -73 -86 -145 -90 -153
-153 -249 -165 -253 -5 -2 -9 -8 -9 -13 0 -6 -31 -52 -68 -102 -256 -344 -548
-632 -881 -870 -107 -77 -266 -177 -281 -177 -5 0 -10 -5 -10 -11 0 -5 -4 -7
-10 -4 -5 3 -10 1 -10 -4 0 -6 -4 -11 -10 -11 -5 0 -31 -13 -58 -29 -27 -16
-60 -32 -73 -36 -13 -4 -26 -11 -29 -14 -6 -8 -197 -94 -205 -92 -3 1 -18 -5
-34 -13 -32 -17 -222 -84 -261 -92 -36 -7 -55 -12 -55 -14 0 -1 -7 -3 -15 -5
-8 -1 -33 -8 -55 -13 -22 -6 -53 -14 -70 -16 -16 -3 -41 -8 -55 -12 -14 -3
-38 -7 -55 -9 -48 -5 -110 -17 -114 -21 -2 -2 9 -4 25 -5 16 0 36 -2 44 -4 8
-2 31 -6 50 -10 60 -11 231 -55 320 -83 47 -14 87 -26 90 -27 28 -6 274 -97
280 -104 3 -3 10 -6 15 -6 16 -1 354 -163 365 -176 3 -3 34 -22 70 -42 36 -20
83 -48 105 -62 22 -14 50 -30 63 -37 12 -6 22 -15 22 -20 0 -4 6 -8 14 -8 8 0
16 -3 18 -8 1 -4 35 -30 73 -57 238 -169 520 -438 717 -686 76 -97 108 -139
108 -144 0 -3 9 -15 20 -27 11 -12 20 -28 20 -35 0 -7 4 -13 9 -13 4 0 25 -28
46 -62 21 -35 41 -65 44 -68 4 -3 15 -22 26 -42 11 -21 23 -38 27 -38 5 0 8
-4 8 -10 0 -5 14 -33 31 -62 57 -95 208 -398 224 -448 2 -7 34 -81 45 -105 16
-36 61 -150 65 -165 2 -8 13 -39 24 -68 12 -28 18 -52 15 -52 -4 0 -1 -6 5
-13 6 -8 12 -22 14 -33 1 -10 5 -23 9 -29 3 -5 25 -77 48 -160 23 -82 45 -157
48 -165 3 -8 6 -19 7 -25 2 -5 19 -81 39 -169 21 -87 40 -177 42 -199 3 -23 8
-45 11 -51 4 -5 7 -21 9 -35 1 -14 5 -39 8 -56 8 -47 26 -157 31 -190 10 -71
16 -112 20 -150 3 -22 7 -53 10 -70 4 -28 10 -81 21 -192 3 -27 7 -75 9 -108
2 -33 6 -85 9 -115 8 -85 20 -317 20 -392 0 -78 9 -82 12 -5 2 53 13 273 19
384 1 34 6 88 9 120 4 32 9 76 11 98 3 22 7 63 11 90 3 28 7 70 9 95 2 25 4
45 5 45 3 0 8 31 14 87 4 31 8 64 10 74 2 11 7 39 11 64 4 25 9 52 10 60 1 8
6 35 10 60 4 25 9 54 12 65 2 11 6 31 9 45 3 14 16 75 29 135 14 61 26 119 28
130 2 11 9 40 16 65 8 25 14 50 15 55 2 6 8 30 15 55 8 25 14 50 16 55 1 6 5
17 8 25 3 8 14 44 23 80 10 36 26 84 35 108 10 23 16 42 14 42 -2 0 3 17 11
37 9 20 17 44 19 52 18 89 263 624 355 775 22 36 40 68 40 71 0 3 5 11 10 18
21 25 60 88 60 97 0 6 5 10 10 10 6 0 10 7 10 15 0 8 4 15 8 15 5 0 14 11 20
25 7 14 16 31 22 38 6 7 45 59 88 117 43 58 87 116 98 129 10 12 27 32 37 44
105 126 307 333 412 422 32 28 66 57 75 65 9 8 31 26 49 40 60 46 116 89 131
102 8 7 56 40 105 73 50 33 92 63 95 66 3 3 12 9 20 13 8 4 24 12 35 19 155
94 483 267 507 267 4 0 28 10 55 22 26 12 50 22 53 22 8 2 73 27 95 37 29 13
225 79 255 85 14 3 43 11 65 19 46 15 238 64 275 70 22 4 51 9 100 20 8 2 23
4 33 4 9 1 17 6 17 11 0 6 -6 10 -12 8 -12 -2 -90 8 -128 17 -8 2 -33 6 -55
10 -64 10 -233 54 -320 83 -44 14 -83 27 -87 28 -5 1 -10 3 -13 4 -3 1 -8 3
-12 5 -5 1 -21 7 -38 14 -16 7 -34 14 -40 15 -5 2 -21 8 -35 13 -14 6 -49 21
-78 32 -70 28 -336 161 -390 194 -23 15 -44 27 -47 27 -3 0 -53 32 -111 70
-59 39 -110 70 -113 70 -4 0 -13 9 -21 20 -8 11 -19 20 -26 20 -6 0 -22 9 -35
20 -13 11 -53 43 -89 70 -147 114 -224 183 -390 349 -174 175 -187 189 -324
361 -104 131 -246 337 -338 490 -54 90 -153 272 -153 282 0 4 -6 13 -12 20 -7
6 -13 15 -13 19 0 4 -22 54 -48 111 -27 57 -56 119 -64 138 -24 52 -109 267
-112 282 -3 13 -11 37 -26 73 -4 11 -13 34 -18 50 -6 17 -14 39 -18 50 -4 11
-7 23 -6 27 1 4 -7 27 -17 52 -11 24 -22 58 -24 74 -3 17 -7 35 -10 39 -8 12
-68 236 -82 306 -2 10 -6 26 -9 35 -3 9 -7 29 -10 45 -3 15 -7 35 -10 45 -3 9
-7 28 -10 42 -2 14 -9 45 -14 70 -6 25 -13 63 -16 85 -6 37 -8 51 -20 103 -2
9 -7 40 -10 67 -4 28 -9 57 -11 65 -4 14 -13 83 -20 145 -2 17 -6 50 -10 75
-15 117 -22 183 -30 280 -3 41 -8 95 -11 120 -6 55 -17 293 -16 338 0 17 -2
32 -6 32 -5 0 -9 -37 -10 -82z"/>
<path d="M8255 6681 c-3 -5 -2 -12 3 -15 5 -3 9 1 9 9 0 17 -3 19 -12 6z"/>
<path d="M2130 3280 c0 -5 5 -10 11 -10 5 0 7 5 4 10 -3 6 -8 10 -11 10 -2 0
-4 -4 -4 -10z"/>
<path d="M2124 3192 c-1 -31 -5 -82 -9 -112 -7 -59 -54 -280 -62 -292 -2 -5
-6 -16 -8 -25 -2 -10 -9 -31 -16 -48 -7 -16 -13 -32 -14 -35 -16 -48 -77 -174
-88 -181 -5 -3 -7 -8 -6 -10 5 -6 -35 -69 -43 -69 -4 0 -8 -5 -8 -11 0 -15
-57 -86 -130 -160 -69 -70 -213 -174 -255 -185 -14 -3 -25 -10 -25 -15 0 -5
-4 -9 -9 -9 -5 0 -22 -5 -38 -12 -35 -14 -35 -14 -113 -31 -61 -14 -65 -22
-15 -30 16 -3 56 -14 115 -32 3 -1 19 -8 35 -15 17 -7 32 -14 35 -15 45 -15
169 -89 219 -130 50 -41 141 -134 141 -145 0 -5 4 -10 9 -10 9 0 73 -90 98
-139 53 -100 83 -163 83 -176 0 -4 6 -21 14 -38 12 -28 23 -66 26 -89 0 -4 7
-26 15 -49 9 -23 17 -62 20 -86 2 -24 6 -47 9 -51 2 -4 7 -34 11 -67 3 -33 8
-69 10 -80 2 -11 4 -38 4 -59 1 -55 13 -37 17 26 4 66 12 131 25 186 5 23 12
59 15 80 5 33 26 104 41 142 8 19 8 20 18 55 11 39 107 227 125 245 3 3 17 23
32 45 31 46 199 215 213 215 4 0 21 11 38 24 35 26 171 99 209 111 12 4 25 8
28 10 34 15 99 33 145 42 17 2 32 7 34 9 7 7 -3 12 -34 17 -16 2 -37 6 -45 10
-8 3 -27 8 -41 11 -14 3 -47 15 -75 28 -27 12 -51 22 -54 23 -3 0 -21 10 -41
23 -20 12 -41 22 -46 22 -5 0 -18 8 -29 18 -10 10 -35 29 -54 42 -40 28 -38
26 -116 100 -63 60 -158 183 -189 245 -11 22 -23 42 -26 45 -8 7 -74 164 -94
224 -23 68 -65 258 -59 267 2 4 1 10 -4 13 -4 3 -10 26 -11 53 -2 26 -5 62 -6
78 -2 17 -4 36 -4 43 -1 6 -4 12 -8 12 -5 0 -9 -26 -9 -58z"/>
<path d="M2131 724 c0 -11 3 -14 6 -6 3 7 2 16 -1 19 -3 4 -6 -2 -5 -13z"/>
</g>
</svg>
